#!OML:ASF E:\Steps\Project 1\Capture day 1\Session 2\Subject.ASF
:FULLY-SPECIFIED
:DEGREES
262
root 14.3364 16.7251 13.5518 -160.603 7.40381 177.72
lowerback -28.4953 -0.727101 -0.697462
upperback 1.10245 -0.765612 1.94079
thorax 16.5508 -0.370896 2.24766
lowerneck 0.442285 -0.146381 0.10513
upperneck 20.8408 1.6771 -0.720582
head 6.24645 1.43895 -0.0873081
rclavicle 3.37934e-015 -6.04305e-014
rhumerus -40.2967 -4.97378 -73.5043
rradius 62.4478
rwrist -12.0588
rhand -8.15205 -57.0477
rfingers 7.12502
rthumb 17.7625 273.744
lclavicle 3.37934e-015 -6.04305e-014
lhumerus -44.0853 7.11036 71.1787
lradius 27.9733
lwrist 1.61846
lhand -19.2339 -11.2677
lfingers 7.12502
lthumb 7.07933 18.5939
rfemur -5.38447 7.7063 9.58682
rtibia 47.3365
rfoot -41.6098 9.58573
rtoes -31.6513
lfemur -44.2628 -2.58388 -10.602
ltibia 22.5577
lfoot 7.11016 5.41907
ltoes -46.7002
263
root 14.2768 16.6727 13.4487 -160.287 7.16401 177.893
lowerback -27.8234 -0.900864 -1.05967
upperback 0.90731 -0.889045 2.08229
thorax 16.0069 -0.453929 2.55269
lowerneck 0.452942 -0.250966 0.11871
upperneck 20.8552 1.52759 -0.691317
head 6.24818 1.36987 -0.0880121
rclavicle 1.61016e-014 4.37326e-014
rhumerus -40.5191 -4.96931 -73.4083
rradius 62.7378
rwrist -11.8638
rhand -6.19623 -55.8493
rfingers 7.12502
rthumb 19.6437 275.123
lclavicle 1.61016e-014 4.37326e-014
lhumerus -43.8309 7.32637 71.1885
lradius 27.0621
lwrist 0.846445
lhand -19.3695 -11.2337
lfingers 7.12502
lthumb 6.9485 18.6323
rfemur -5.54347 7.79679 9.48328
rtibia 47.9022
rfoot -41.137 10.0561
rtoes -31.7637
lfemur -44.9523 -2.36195 -10.9986
ltibia 23.9389
lfoot 5.17989 4.84572
ltoes -47.0125
264
root 14.217 16.6273 13.3564 -159.836 6.82852 178.085
lowerback -27.2678 -1.11068 -1.40287
upperback 0.763173 -1.0793 2.26154
thorax 15.5886 -0.566939 2.86483
lowerneck 0.526319 -0.392542 0.00618816
upperneck 20.5618 1.26848 -0.579762
head 6.13947 1.22807 -0.0509444
rclavicle 9.93923e-016 1.43125e-014
rhumerus -40.5509 -4.93752 -73.3309
rradius 62.9662
rwrist -11.3281
rhand -8.34166 -58.6385
rfingers 7.12502
rthumb 17.5801 272.136
lclavicle 9.93923e-016 1.43125e-014
lhumerus -43.3942 7.7815 71.1563
lradius 26.1165
lwrist -0.151182
lhand -19.4556 -11.3068
lfingers 7.12502
lthumb 6.86535 18.5619
rfemur -6.06532 7.84169 9.4497
rtibia 48.7531
rfoot -40.8956 10.5536
rtoes -30.8307
lfemur -45.9301 -2.22404 -11.3163
ltibia 25.4574
lfoot 3.85762 4.44273
ltoes -46.0923
265
root 14.1576 16.5896 13.2615 -159.402 6.37708 178.266
lowerback -27.0643 -1.27878 -1.6271
upperback 0.882431 -1.26632 2.37158
thorax 15.6512 -0.681621 3.03822
lowerneck 0.414037 -0.578794 -0.115073
upperneck 20.3031 0.920197 -0.366674
head 6.07361 1.04347 0.0164953
rclavicle 5.96354e-015 -8.74653e-015
rhumerus -40.1071 -5.1652 -73.4379
rradius 62.8874
rwrist -11.05
rhand -7.40655 -57.3993
rfingers 7.12502
rthumb 18.4798 273.458
lclavicle 5.96354e-015 -8.74653e-015
lhumerus -42.6747 8.20179 71.1471
lradius 25.4736
lwrist -1.03748
lhand -19.4983 -11.3712
lfingers 7.12502
lthumb 6.82413 18.4988
rfemur -6.04643 7.67252 9.39624
rtibia 48.6815
rfoot -40.1782 11.1827
rtoes -29.5624
lfemur -46.8342 -2.30105 -11.5797
ltibia 26.8025
lfoot 2.65571 4.01849
ltoes -45.7768
266
root 14.0993 16.5594 13.1632 -159.047 5.92601 178.342
lowerback -27.1114 -1.38687 -1.83943
upperback 1.23464 -1.37919 2.35517
thorax 16.1049 -0.772872 3.09421
lowerneck 0.127105 -0.694851 -0.0979964
upperneck 19.9652 0.64668 -0.208532
head 6.01396 0.890999 0.0463018
rclavicle 8.15017e-015 7.95139e-016
rhumerus -38.9537 -5.88252 -73.8166
rradius 62.2238
rwrist -10.8239
rhand -4.64611 -55.1024
rfingers 7.12502
rthumb 21.1334 276.029
lclavicle 8.15017e-015 7.95139e-016
lhumerus -41.6431 8.57883 71.1245
lradius 25.1356
lwrist -1.85133
lhand -19.3384 -11.3395
lfingers 7.12502
lthumb 6.97854 18.5255
rfemur -6.07402 7.56052 9.25368
rtibia 48.8051
rfoot -39.4053 11.8058
rtoes -29.567
lfemur -47.5853 -2.54621 -11.8884
ltibia 27.9647
lfoot 1.44994 3.61518
ltoes -45.6748
267
root 14.0431 16.5369 13.0725 -158.702 5.51392 178.379
lowerback -26.5294 -1.46479 -2.18482
upperback 1.17276 -1.38461 2.34411
thorax 15.7506 -0.802745 3.27406
lowerneck 0.00096648 -0.854779 -0.0772478
upperneck 20.0149 0.385894 0.00482738
head 6.05046 0.779158 0.097671
rclavicle 1.37161e-014 -1.51076e-014
rhumerus -39.4545 -5.85824 -73.8418
rradius 62.6277
rwrist -11.5884
rhand -5.39417 -54.2306
rfingers 7.12502
rthumb 20.4147 276.822
lclavicle 1.37161e-014 -1.51076e-014
lhumerus -41.2203 8.60642 71.1073
lradius 25.0401
lwrist -2.59833
lhand -19.0222 -11.039
lfingers 7.12502
lthumb 7.28372 18.8157
rfemur -6.09604 7.56541 9.12383
rtibia 48.9141
rfoot -38.695 12.2951
rtoes -31.5441
lfemur -48.3031 -2.71208 -12.2661
ltibia 29.0876
lfoot 0.359162 3.19229
ltoes -45.0067
268
root 13.9875 16.5211 12.9913 -158.255 4.94819 178.413
lowerback -26.045 -1.55177 -2.48485
upperback 0.760364 -1.3976 2.18774
thorax 15.7239 -0.858948 3.47995
lowerneck -0.1703 -1.05567 -0.01847
upperneck 20.2448 0.0747748 0.312484
head 6.15256 0.662201 0.171575
rclavicle 1.98785e-015 4.29375e-014
rhumerus -39.8621 -6.13156 -73.9481
rradius 62.79
rwrist -11.9634
rhand -5.95979 -55.101
rfingers 7.12502
rthumb 19.871 275.895
lclavicle 1.98785e-015 4.29375e-014
lhumerus -40.9106 8.23745 71.2254
lradius 25.1776
lwrist -3.29329
lhand -18.9479 -10.737
lfingers 7.12502
lthumb 7.35542 19.1151
rfemur -6.20256 7.39936 9.0594
rtibia 48.9805
rfoot -37.8673 12.64
rtoes -33.1494
lfemur -49.2225 -2.94687 -12.6074
ltibia 30.2796
lfoot -0.510096 2.73358
ltoes -44.8249
269
root 13.9332 16.5112 12.9072 -157.909 4.43788 178.498
lowerback -25.4709 -1.6109 -2.6601
upperback 0.739423 -1.43911 2.1645
thorax 15.3783 -0.888084 3.53464
lowerneck -0.387306 -1.26427 -0.0646628
upperneck 20.5035 -0.236996 0.584712
head 6.27326 0.535356 0.251602
rclavicle -1.55052e-014 -3.97569e-014
rhumerus -39.8831 -6.53126 -73.9981
rradius 62.4663
rwrist -11.9823
rhand -6.24456 -56.0328
rfingers 7.12502
rthumb 19.5972 274.935
lclavicle -1.55052e-014 -3.97569e-014
lhumerus -40.6881 7.72721 71.5306
lradius 25.551
lwrist -3.81549
lhand -19.0548 -10.5941
lfingers 7.12502
lthumb 7.25223 19.2616
rfemur -6.22498 7.39057 9.10604
rtibia 48.9668
rfoot -36.8059 13.084
rtoes -32.8691
lfemur -49.9496 -3.12862 -12.8421
ltibia 31.3149
lfoot -1.1668 2.27906
ltoes -43.9425
270
root 13.8772 16.5036 12.8145 -157.628 4.25754 178.658
lowerback -24.9827 -1.46518 -2.64244
upperback 0.76716 -1.25725 2.05561
thorax 15.1124 -0.80048 3.46303
lowerneck -0.51335 -1.44979 -0.0503063
upperneck 20.6609 -0.532084 0.890521
head 6.34694 0.422633 0.331939
rclavicle -1.07344e-014 -1.82882e-014
rhumerus -39.9289 -6.87154 -74.151
rradius 62.1632
rwrist -12.6917
rhand -9.24877 -59.0896
rfingers 7.12502
rthumb 16.707 271.609
lclavicle -1.07344e-014 -1.82882e-014
lhumerus -40.3808 7.08143 71.8332
lradius 25.9506
lwrist -3.93278
lhand -19.2443 -10.5228
lfingers 7.12502
lthumb 7.06938 19.3391
rfemur -6.42504 7.83459 9.19811
rtibia 49.3638
rfoot -36.1417 13.2408
rtoes -32.7809
lfemur -50.3347 -3.1543 -12.982
ltibia 31.9697
lfoot -1.65819 2.03094
ltoes -42.124
271
root 13.8206 16.5019 12.7276 -157.204 4.17117 178.726
lowerback -25.281 -1.2769 -2.67517
upperback 1.16118 -0.995386 1.85752
thorax 15.7333 -0.706567 3.35308
lowerneck -0.685482 -1.58376 0.0297082
upperneck 20.2657 -0.856728 1.25346
head 6.25288 0.268911 0.411437
rclavicle 3.77691e-015 1.19271e-015
rhumerus -39.3996 -7.47145 -74.4235
rradius 61.706
rwrist -13.205
rhand -6.61859 -58.1166
rfingers 7.12502
rthumb 19.2376 272.815
lclavicle 3.77691e-015 1.19271e-015
lhumerus -39.3048 6.45655 72.2502
lradius 26.2717
lwrist -3.83881
lhand -19.9661 -10.686
lfingers 7.12502
lthumb 6.3725 19.1981
rfemur -6.73911 8.15578 9.07808
rtibia 49.5558
rfoot -35.3593 13.5486
rtoes -32.5709
lfemur -50.7487 -3.21967 -13.1935
ltibia 32.4002
lfoot -2.07009 1.87791
ltoes -41.3978
272
root 13.765 16.507 12.6469 -156.721 4.0894 178.717
lowerback -24.8268 -1.20609 -2.84068
upperback 1.04625 -0.844699 1.7495
thorax 15.3205 -0.637053 3.37465
lowerneck -0.795029 -1.84392 0.0412906
upperneck 20.5622 -1.20765 1.39448
head 6.36966 0.126217 0.437333
rclavicle -1.2921e-015 5.56597e-015
rhumerus -39.6403 -7.55405 -74.5802
rradius 61.4498
rwrist -13.2259
rhand -4.87885 -57.2622
rfingers 7.12502
rthumb 20.9098 273.845
lclavicle -1.2921e-015 5.56597e-015
lhumerus -39.1246 5.75651 72.6385
lradius 26.8829
lwrist -3.40664
lhand -20.3473 -10.9162
lfingers 7.12502
lthumb 6.00448 18.9787
rfemur -6.77387 8.18766 8.76963
rtibia 48.892
rfoot -33.8083 14.2027
rtoes -30.9086
lfemur -51.2089 -3.21745 -13.5321
ltibia 32.8057
lfoot -2.48735 1.60115
ltoes -41.3063
